<svg xmlns="http://www.w3.org/2000/svg" viewBox="0 0 384 512"><!--!Font Awesome Free 6.7.2 by @fontawesome - https://fontawesome.com License - https://fontawesome.com/license/free Copyright 2025 Fonticons, Inc.--><path d="M256 160V16c0-8.8-7.2-16-16-16h-32c-8.8 0-16 7.2-16 16v146.9c5-1.8 10.3-2.9 16-2.9h48zm128 96c0-35.3-28.7-64-64-64H207.9c-8.8 0-15.9 7.1-15.9 15.9v.6c0 26.3 21.3 47.6 47.6 47.6h35.3c9.7 0 13.2 3.6 13.2 8v16.2c0 4.3-3.6 7.8-7.9 8-44.5 2.3-64.2 24.7-96.1 72.6l-6.3 9.5a8 8 0 0 1 -11.1 2.2l-13.3-8.9a8 8 0 0 1 -2.2-11.1l6.3-9.5c15.7-23.6 30.2-43.3 47.3-58.1-17.3-5.5-31.4-18.1-38.9-34.5-6.6 3.4-14 5.5-21.9 5.5h-32c-12.3 0-23.5-4.8-32-12.5C71.5 251.2 60.3 256 48 256H16c-5.6 0-11-1.2-16-3v77.9c0 34 13.5 66.5 37.5 90.5L64 448v64h256v-64l35.9-35.9A96 96 0 0 0 384 344.2l0-88.2zm-32-90.1V48c0-8.8-7.2-16-16-16h-32c-8.8 0-16 7.2-16 16v112h32c11.3 0 21.9 2.3 32 5.9zM16 224h32c8.8 0 16-7.2 16-16V80c0-8.8-7.2-16-16-16H16C7.2 64 0 71.2 0 80v128c0 8.8 7.2 16 16 16zm96 0h32c8.8 0 16-7.2 16-16V48c0-8.8-7.2-16-16-16h-32c-8.8 0-16 7.2-16 16v160c0 8.8 7.2 16 16 16z"/></svg>